<?xml version="1.0" encoding="UTF-8" standalone="no"?>
<!DOCTYPE svg PUBLIC "-//W3C//DTD SVG 1.1//EN" "http://www.w3.org/Graphics/SVG/1.1/DTD/svg11.dtd">
<svg width="100%" height="100%" viewBox="0 0 214 223" version="1.1" xmlns="http://www.w3.org/2000/svg" xmlns:xlink="http://www.w3.org/1999/xlink" xml:space="preserve" xmlns:serif="http://www.serif.com/" style="fill-rule:evenodd;clip-rule:evenodd;stroke-linejoin:round;stroke-miterlimit:2;">
    <g transform="matrix(0.568708,0,0,0.568708,-139.501,5.19249)">
        <path d="M303,290C299.8,289.9 297.2,292.4 297.1,295.5L297.1,324.3C283.4,313.3 263.3,315.5 252.3,329.2C247.8,334.9 245.3,341.9 245.3,349.2C245,366.8 259,381.3 276.6,381.6C294.2,381.9 308.7,367.9 309,350.3L309,295.9C309,294.3 308.4,292.8 307.3,291.7C306.1,290.6 304.6,290 303,290M295.5,356.9C293.5,361.7 289.7,365.5 284.9,367.6C279.9,369.7 274.3,369.7 269.3,367.6C264.5,365.6 260.8,361.7 258.8,357C256.7,352.1 256.7,346.5 258.8,341.5C260.8,336.7 264.6,332.9 269.3,330.9C274.3,328.8 279.9,328.8 284.9,330.9C289.7,333 293.5,336.8 295.5,341.6C297.6,346.4 297.6,352 295.5,356.9" style="fill:rgb(175,175,175);fill-rule:nonzero;"/>
    </g>
    <g transform="matrix(0.568708,0,0,0.568708,-139.501,5.19249)">
        <path d="M369.5,326.7C357.1,314.3 336.9,314.3 324.5,326.7C318.5,332.7 315.2,340.8 315.2,349.2C314.9,366.8 328.9,381.3 346.5,381.6C364.1,381.9 378.6,367.9 378.9,350.3L378.9,349.2C378.9,345 378.1,340.9 376.5,337C374.9,333.1 372.5,329.6 369.5,326.7M365.4,356.8C364.4,359.2 362.9,361.3 361.1,363.1C359.3,364.9 357.1,366.4 354.8,367.4C349.8,369.5 344.2,369.5 339.2,367.4C334.4,365.4 330.6,361.5 328.6,356.8C326.5,351.9 326.5,346.3 328.6,341.3C330.6,336.5 334.4,332.8 339.2,330.7C344.2,328.6 349.8,328.6 354.8,330.7C357.2,331.7 359.3,333.2 361.1,335C362.9,336.8 364.4,339 365.4,341.3C367.5,346.4 367.5,352 365.4,356.8" style="fill:rgb(175,175,175);fill-rule:nonzero;"/>
    </g>
    <g transform="matrix(0.568708,0,0,0.568708,-139.501,5.19249)">
        <path d="M501.2,323.2C501.2,322.4 501,321.6 500.7,320.9C500.4,320.2 499.9,319.6 499.4,319C498.9,318.5 498.2,318 497.5,317.7C496.8,317.4 496,317.2 495.2,317.2C494.1,317.2 493,317.5 492,318.1L458,340.2L458,296C458,294.4 457.4,292.9 456.3,291.8C455.2,290.7 453.7,290 452.1,290C448.8,290 446.2,292.6 446.1,295.9L446.1,375C446.1,376.6 446.7,378.1 447.8,379.2C448.9,380.4 450.4,381 452,381C453.6,381 455.1,380.4 456.2,379.2C457.3,378.1 458,376.6 457.9,375L457.9,354.5L464.8,350L491.1,379.5C492.2,380.5 493.6,381.1 495.1,381C495.9,381 496.7,380.9 497.4,380.5C498.1,380.2 498.7,379.8 499.3,379.2C499.8,378.6 500.3,378 500.6,377.3C500.9,376.6 501.1,375.8 501.1,375C501.1,373.5 500.5,372 499.5,370.9L475.1,343.4L498.9,327.9C500.5,326.9 501.3,325.1 501.2,323.2" style="fill:rgb(175,175,175);fill-rule:nonzero;"/>
    </g>
    <g transform="matrix(0.568708,0,0,0.568708,-139.501,5.19249)">
        <path d="M402.5,335C404.3,333.2 406.5,331.7 408.9,330.7C411.4,329.7 414,329.1 416.7,329.1C419.1,329.1 421.4,329.5 423.6,330.3C425.8,331.2 427.9,332.4 429.7,334C430.8,334.9 432.2,335.3 433.6,335.3C435.2,335.4 436.8,334.8 437.9,333.6C439,332.5 439.6,330.9 439.6,329.3C439.6,327.6 438.9,325.9 437.5,324.8C431.8,319.7 424.4,316.9 416.7,317.1C399.1,317.1 384.8,331.4 384.8,349C384.8,366.6 399,380.8 416.5,380.9C424.2,380.9 431.6,378.2 437.4,373.2C438.6,372.1 439.3,370.5 439.3,368.8C439.4,365.6 436.9,363 433.8,362.9L433.4,362.9C432,362.9 430.7,363.3 429.6,364.1C427.8,365.7 425.8,366.9 423.6,367.8C421.4,368.6 419,369 416.7,369C414,369 411.4,368.5 408.9,367.4C406.5,366.4 404.4,364.9 402.5,363.1C394.7,355.3 394.7,342.7 402.4,334.9C402.5,335.1 402.5,335.1 402.5,335" style="fill:rgb(175,175,175);fill-rule:nonzero;"/>
    </g>
    <g transform="matrix(0.568708,0,0,0.568708,-139.501,5.19249)">
        <path d="M619.3,321.3C618.1,320.2 616.8,319.4 615.3,318.9C613.6,318.3 611.8,317.9 610,317.7C608.2,317.5 606.4,317.4 604.6,317.4C601,317.4 597.3,318 593.9,319.3C590.5,320.5 587.4,322.3 584.6,324.5L584.6,323.3C584.5,320 581.7,317.5 578.4,317.6C575.3,317.7 572.8,320.2 572.7,323.3L572.7,375.2C572.8,378.5 575.6,381 578.9,380.9C582,380.8 584.5,378.3 584.6,375.2L584.6,349.3C584.6,346.6 585.1,344 586.2,341.5C587.2,339.1 588.6,337 590.5,335.2C592.3,333.4 594.5,331.9 596.8,330.9C599.3,329.9 601.9,329.3 604.6,329.3C607.3,329.3 609.9,329.8 612.4,330.7C613.2,331.1 614,331.3 614.9,331.3C615.7,331.3 616.5,331.2 617.2,330.8C617.9,330.5 618.5,330.1 619.1,329.5C619.6,329 620.1,328.3 620.4,327.6C620.7,326.9 620.9,326.1 620.9,325.3C621,323.8 620.4,322.4 619.3,321.3" style="fill:rgb(175,175,175);fill-rule:nonzero;"/>
    </g>
    <g transform="matrix(0.568708,0,0,0.568708,-139.501,5.19249)">
        <path d="M564.1,337C559,325.2 547.4,317.5 534.6,317.4C517,317.4 502.8,331.6 502.7,349.2C502.7,366.8 517,381.1 534.6,381.1C542.2,381.1 549.6,378.4 555.4,373.4C555.5,373.3 555.6,373.2 555.6,373.2C556.1,372.8 556.6,372.3 556.9,371.7C558.8,368.9 558.1,365.2 555.4,363.3C553.1,361.8 550.1,362.1 548.1,364C547.9,364.2 547.3,364.7 547.3,364.8L547.2,364.9C545.5,366.3 543.6,367.5 541.5,368.2C539.3,369 537,369.4 534.6,369.3C532.4,369.3 530.3,369 528.2,368.3C526.2,367.6 524.3,366.7 522.6,365.4C520.9,364.2 519.4,362.7 518.2,361C516.9,359.3 516,357.3 515.4,355.3L560.4,355.3C562,355.3 563.5,354.7 564.6,353.6C565.8,352.5 566.4,351 566.3,349.4C566.4,345.1 565.6,340.9 564.1,337M515.4,343.4C516,341.3 516.9,339.4 518.2,337.7C519.4,336 520.9,334.5 522.6,333.3C524.3,332.1 526.2,331.1 528.2,330.4C530.2,329.7 532.4,329.4 534.5,329.4C536.6,329.4 538.8,329.7 540.8,330.4C544.8,331.7 548.3,334.3 550.8,337.7C552.1,339.4 553,341.4 553.7,343.4L515.4,343.4Z" style="fill:rgb(175,175,175);fill-rule:nonzero;"/>
    </g>
    <g transform="matrix(0.568708,0,0,0.568708,-139.501,5.19249)">
        <path d="M599,372.4C596.7,372.4 594.9,374.3 594.9,376.6C594.9,378.9 596.8,380.7 599.1,380.7C601.4,380.7 603.2,378.8 603.2,376.6C603.2,374.2 601.3,372.4 599,372.4M599,379.8C597.2,379.9 595.7,378.5 595.6,376.7C595.5,374.9 596.9,373.4 598.7,373.3C600.5,373.2 602,374.6 602.1,376.4L602.1,376.6C602.2,378.3 600.8,379.8 599.1,379.8L599,379.8" style="fill:rgb(175,175,175);fill-rule:nonzero;"/>
    </g>
    <g transform="matrix(0.568708,0,0,0.568708,-139.501,5.19249)">
        <path d="M600,376.6C600.5,376.5 600.8,376.1 600.8,375.6C600.8,375.2 600.7,374.9 600.4,374.7C600,374.5 599.5,374.4 599,374.4C598.5,374.4 597.9,374.4 597.4,374.5L597.4,378.6L598.3,378.6L598.3,377L598.7,377C599.2,377 599.5,377.2 599.6,377.6C599.7,377.9 599.8,378.3 599.9,378.6L600.9,378.6C600.7,378.3 600.6,377.9 600.6,377.6C600.7,377.2 600.4,376.8 600,376.6M598.8,376.3L598.3,376.3L598.3,375.1L598.8,375.1C599.4,375.1 599.7,375.4 599.7,375.7C599.8,376.1 599.3,376.4 598.8,376.3" style="fill:rgb(175,175,175);fill-rule:nonzero;"/>
    </g>
    <g transform="matrix(0.990736,0,0,0.990736,-20.6934,-242.355)">
        <path d="M234.4,303.4C233.8,302.9 228.4,298.8 216.8,298.8C213.8,298.8 210.7,299.1 207.7,299.6C205.5,284.3 192.8,276.9 192.3,276.5L189.2,274.7L187.2,277.6C184.7,281.5 182.8,285.9 181.7,290.4C179.6,299.1 180.9,307.3 185.3,314.3C180,317.3 171.4,318 169.6,318.1L27.6,318.1C23.9,318.1 20.9,321.1 20.9,324.8C20.7,337.2 22.8,349.6 27.1,361.3C32,374.1 39.3,383.6 48.7,389.4C59.3,395.9 76.6,399.6 96.1,399.6C104.9,399.6 113.7,398.8 122.4,397.2C134.5,395 146.1,390.8 156.8,384.7C165.6,379.6 173.5,373.1 180.2,365.5C191.5,352.8 198.2,338.6 203.1,326L205.1,326C217.4,326 225,321.1 229.2,316.9C232,314.3 234.1,311.1 235.6,307.5L236.5,304.9L234.4,303.4Z" style="fill:rgb(175,175,175);fill-rule:nonzero;"/>
    </g>
    <g transform="matrix(1,0,0,1,-20.8869,-244.9)">
        <path d="M40.8,314L59.8,314C60.7,314 61.5,313.3 61.5,312.3L61.5,295.3C61.5,294.4 60.8,293.6 59.8,293.6L40.8,293.6C39.9,293.6 39.1,294.3 39.1,295.3L39.1,312.3C39.2,313.3 39.9,314 40.8,314" style="fill:rgb(175,175,175);fill-rule:nonzero;"/>
    </g>
    <g transform="matrix(1,0,0,1,-20.8869,-244.9)">
        <path d="M67,314L86,314C86.9,314 87.7,313.3 87.7,312.3L87.7,295.3C87.7,294.4 87,293.6 86,293.6L67,293.6C66.1,293.6 65.3,294.3 65.3,295.3L65.3,312.3C65.4,313.3 66.1,314 67,314" style="fill:rgb(175,175,175);fill-rule:nonzero;"/>
    </g>
    <g transform="matrix(1,0,0,1,-20.8869,-244.9)">
        <path d="M93.7,314L112.7,314C113.6,314 114.4,313.3 114.4,312.3L114.4,295.3C114.4,294.4 113.7,293.6 112.7,293.6L93.7,293.6C92.8,293.6 92,294.3 92,295.3L92,312.3C92,313.3 92.7,314 93.7,314" style="fill:rgb(175,175,175);fill-rule:nonzero;"/>
    </g>
    <g transform="matrix(1,0,0,1,-20.8869,-244.9)">
        <path d="M120,314L139,314C139.9,314 140.7,313.3 140.7,312.3L140.7,295.3C140.7,294.4 140,293.6 139,293.6L120,293.6C119.1,293.6 118.3,294.3 118.3,295.3L118.3,312.3C118.3,313.3 119.1,314 120,314" style="fill:rgb(175,175,175);fill-rule:nonzero;"/>
    </g>
    <g transform="matrix(1,0,0,1,-20.8869,-244.9)">
        <path d="M67,289.7L86,289.7C86.9,289.7 87.7,288.9 87.7,288L87.7,271C87.7,270.1 87,269.3 86,269.3L67,269.3C66.1,269.3 65.3,270 65.3,271L65.3,288C65.4,288.9 66.1,289.7 67,289.7" style="fill:rgb(175,175,175);fill-rule:nonzero;"/>
    </g>
    <g transform="matrix(1,0,0,1,-20.8869,-244.9)">
        <path d="M93.7,289.7L112.7,289.7C113.6,289.7 114.4,288.9 114.4,288L114.4,271C114.4,270.1 113.7,269.3 112.7,269.3L93.7,269.3C92.8,269.3 92,270 92,271L92,288C92,288.9 92.7,289.7 93.7,289.7" style="fill:rgb(175,175,175);fill-rule:nonzero;"/>
    </g>
    <g transform="matrix(1,0,0,1,-20.8869,-244.9)">
        <path d="M120,289.7L139,289.7C139.9,289.7 140.7,288.9 140.7,288L140.7,271C140.7,270.1 139.9,269.3 139,269.3L120,269.3C119.1,269.3 118.3,270 118.3,271L118.3,288C118.3,288.9 119.1,289.7 120,289.7" style="fill:rgb(175,175,175);fill-rule:nonzero;"/>
    </g>
    <g transform="matrix(1,0,0,1,-20.8869,-244.9)">
        <path d="M120,265.3L139,265.3C139.9,265.3 140.7,264.6 140.7,263.6L140.7,246.6C140.7,245.7 139.9,244.9 139,244.9L120,244.9C119.1,244.9 118.3,245.6 118.3,246.6L118.3,263.6C118.3,264.5 119.1,265.3 120,265.3" style="fill:rgb(175,175,175);fill-rule:nonzero;"/>
    </g>
    <g transform="matrix(1,0,0,1,-20.8869,-244.9)">
        <path d="M146.5,314L165.5,314C166.4,314 167.2,313.3 167.2,312.3L167.2,295.3C167.2,294.4 166.5,293.6 165.5,293.6L146.5,293.6C145.6,293.6 144.8,294.3 144.8,295.3L144.8,312.3C144.9,313.3 145.6,314 146.5,314" style="fill:rgb(175,175,175);fill-rule:nonzero;"/>
    </g>
    <g transform="matrix(0.925804,0,0,0.925804,-7.61973,-7.08828)">
        <circle cx="180.5" cy="153.5" r="21.5" style="fill:rgb(255,65,65);"/>
    </g>
    <g transform="matrix(3.09937,0,0,3.09937,-360.22,-263.471)">
        <text x="163.433px" y="132.665px" style="font-family:'GillSans', 'Gill Sans', sans-serif;font-size:12px;fill:white;">X</text>
    </g>
</svg>
